0
SECTION
2
HEADER
9
$INSUNITS
70
4
9
$ACADVER
1
AC1014
9
$HANDSEED
5
FFFF
0
ENDSEC
0
SECTION
2
TABLES
0
TABLE
2
VPORT
5
8
100
AcDbSymbolTable
0
ENDTAB
0
TABLE
2
LTYPE
5
5
100
AcDbSymbolTable
0
LTYPE
5
14
100
AcDbSymbolTableRecord
100
AcDbLinetypeTableRecord
2
BYBLOCK
70
0
0
LTYPE
5
15
100
AcDbSymbolTableRecord
100
AcDbLinetypeTableRecord
2
BYLAYER
70
0
0
ENDTAB
0
TABLE
2
LAYER
5
2
100
AcDbSymbolTable
70
2
0
LAYER
5
50
100
AcDbSymbolTableRecord
100
AcDbLayerTableRecord
2
0
70
0
6
CONTINUOUS
0
ENDTAB
0
TABLE
2
STYLE
5
3
100
AcDbSymbolTable
70
1
0
STYLE
5
11
100
AcDbSymbolTableRecord
100
AcDbTextStyleTableRecord
2
STANDARD
70
0
0
ENDTAB
0
TABLE
2
VIEW
5
6
100
AcDbSymbolTable
70
0
0
ENDTAB
0
TABLE
2
UCS
5
7
100
AcDbSymbolTable
70
0
0
ENDTAB
0
TABLE
2
APPID
5
9
100
AcDbSymbolTable
70
2
0
APPID
5
12
100
AcDbSymbolTableRecord
100
AcDbRegAppTableRecord
2
ACAD
70
0
0
ENDTAB
0
TABLE
2
DIMSTYLE
5
A
100
AcDbSymbolTable
70
1
0
ENDTAB
0
TABLE
2
BLOCK_RECORD
5
1
100
AcDbSymbolTable
70
1
0
BLOCK_RECORD
5
1F
100
AcDbSymbolTableRecord
100
AcDbBlockTableRecord
2
*MODEL_SPACE
0
BLOCK_RECORD
5
1B
100
AcDbSymbolTableRecord
100
AcDbBlockTableRecord
2
*PAPER_SPACE
0
ENDTAB
0
ENDSEC
0
SECTION
2
BLOCKS
0
BLOCK
5
20
100
AcDbEntity
100
AcDbBlockBegin
2
*MODEL_SPACE
0
ENDBLK
5
21
100
AcDbEntity
100
AcDbBlockEnd
0
BLOCK
5
1C
100
AcDbEntity
100
AcDbBlockBegin
2
*PAPER_SPACE
0
ENDBLK
5
1D
100
AcDbEntity
100
AcDbBlockEnd
0
ENDSEC
0
SECTION
2
ENTITIES
0
LWPOLYLINE
5
100
100
AcDbEntity
8
0
100
AcDbPolyline
90
178
70
1
43
0.0
10
-214.02500900000004
20
19.869443000000004
10
-213.79745400000002
20
19.709989
10
-213.55264199999999
20
19.538536000000001
10
-142.449928
20
32.075206000000009
10
-142.33421300000001
20
32.240304000000002
10
-142.01811900000001
20
32.691511000000006
10
-141.87277900000001
20
32.899647000000002
10
-141.731674
20
33.101080000000003
10
-141.592331
20
33.299695
10
-141.45228499999999
20
33.500070000000001
10
-141.30869300000001
20
33.705387000000002
10
-141.15841599999999
20
33.919876000000002
10
-140.82751400000001
20
34.392246999999998
10
-143.37562500000001
20
48.837792
10
-143.23062899999999
20
49.010652999999998
10
-143.094459
20
49.173285
10
-142.965698
20
49.326743999999998
10
-142.784019
20
49.543348999999999
10
-142.61220500000002
20
49.747959000000002
10
-142.44570899999999
20
49.946218999999999
10
-142.28095200000001
20
50.142719000000007
10
-142.11338799999999
20
50.342388000000007
10
-141.93875800000001
20
50.550525999999998
10
-141.75284500000001
20
50.772425000000005
10
-141.62020100000001
20
50.930119000000005
10
-141.479782
20
51.097332000000009
10
-141.40605099999999
20
51.185173000000006
10
-140.704025
20
51.185173000000006
10
-140.70399399999999
20
84.476877000000016
10
-137.80416099999999
20
84.476877000000016
10
-137.80416099999999
20
88.427987999999999
10
-125.30171900000001
20
88.427987999999999
10
-125.30171900000001
20
84.476877000000016
10
-122.40188600000002
20
84.476877000000016
10
-122.40188600000002
20
76.476877000000002
10
-132.40188599999999
20
76.476877000000002
10
-132.40188599999999
20
73.476877000000002
10
-122.40188600000002
20
73.476877000000002
10
-122.40188600000002
20
51.185166000000002
10
-121.71785700000001
20
51.185166000000002
10
-121.57285299999999
20
51.012304999999998
10
-121.43668300000002
20
50.850023
10
-121.12623600000001
20
50.479960000000005
10
-120.78791800000002
20
50.077089999999998
10
-120.623169
20
49.88059100000001
10
-120.455597
20
49.68092200000001
10
-120.28097500000001
20
49.472782000000002
10
-120.09506200000001
20
49.251235999999999
10
-119.96241000000001
20
49.093541999999999
10
-119.822006
20
48.925967999999997
10
-119.74826800000001
20
48.838131000000004
10
-122.29460899999999
20
34.391883999999997
10
-122.178901
20
34.226785999999997
10
-122.01591500000001
20
33.993951000000003
10
-121.862815
20
33.775578000000003
10
-121.71711700000002
20
33.567442999999997
10
-121.576362
20
33.366002000000002
10
-121.29696600000001
20
32.967011999999997
10
-121.153038
20
32.761695000000003
10
-121.00275400000001
20
32.547204999999998
10
-120.843658
20
32.319667000000003
10
-120.67221000000002
20
32.075189999999999
10
-49.569637
20
19.538882999999998
10
-49.404434000000002
20
19.654598
10
-49.171598000000003
20
19.817581000000001
10
-48.953157000000004
20
19.970333
10
-48.74519500000001
20
20.116028
10
-48.543757999999997
20
20.257137000000004
10
-48.344970000000004
20
20.396485999999999
10
-48.144872000000007
20
20.536536999999999
10
-47.939520999999999
20
20.680116999999999
10
-47.724997999999999
20
20.830397999999999
10
-47.497382999999999
20
20.989853000000004
10
-47.252735000000001
20
21.161305000000002
10
-45.946436000000006
20
28.571753999999999
10
-29.155519999999999
20
25.611946000000003
10
-28.990349000000002
20
25.727661000000005
10
-28.53904
20
26.043396000000001
10
-28.331078000000005
20
26.189091000000001
10
-28.129677000000001
20
26.330200000000001
10
-27.930887000000002
20
26.469193000000004
10
-27.525475000000004
20
26.753178999999999
10
-27.310949999999998
20
26.903461
10
-27.083337000000004
20
27.062915000000004
10
-26.838687
20
27.234012
10
-17.609490999999998
20
79.576243000000005
10
-17.725166999999999
20
79.741415000000003
10
-17.888255999999998
20
79.974287000000004
10
-18.041184999999999
20
80.192728000000017
10
-18.186847
20
80.400690000000012
10
-18.327887
20
80.602125000000001
10
-18.607216999999999
20
81.001013
10
-18.751009
20
81.206361999999999
10
-18.901222000000001
20
81.420884999999998
10
-19.060607000000005
20
81.64850100000001
10
-19.231915000000001
20
81.893148999999994
10
-34.053026000000003
20
84.505823000000007
10
-34.218195999999999
20
84.390146000000001
10
-34.669468999999999
20
84.07409100000001
10
-34.877431000000001
20
83.928499000000002
10
-35.078832000000006
20
83.787424000000001
10
-35.277622000000001
20
83.648218
10
-35.477752000000002
20
83.508097000000006
10
-35.683069000000003
20
83.364305999999999
10
-35.897593999999998
20
83.214090999999996
10
-36.125205999999999
20
83.054704999999998
10
-36.369822999999997
20
82.883398000000014
10
-37.676192999999998
20
75.472807000000003
10
-93.957405000000008
20
85.396586000000013
10
-90.997596000000001
20
102.18764700000001
10
-91.113310999999996
20
102.352816
10
-91.276290000000003
20
102.58565000000002
10
-91.429046
20
102.80408700000001
10
-91.574744999999993
20
103.01204900000002
10
-91.715850000000003
20
103.21345000000001
10
-91.854843000000002
20
103.41224099999999
10
-91.995254000000003
20
103.61233
10
-92.138831999999994
20
103.81769
10
-92.448561999999995
20
104.25979100000001
10
-92.619667000000007
20
104.504435
10
-109.41082700000001
20
107.46664600000001
10
-111.05936400000002
20
107.674921
10
-130.03563700000001
20
109.336085
10
-133.086105
20
109.336085
10
-152.0652
20
107.674921
10
-170.49537600000002
20
104.498087
10
-170.611435
20
104.33266700000001
10
-170.77548200000001
20
104.09959600000001
10
-170.92929000000001
20
103.88097600000002
10
-171.07534699999999
20
103.672938
10
-171.217163
20
103.471476
10
-171.35685699999999
20
103.27264599999999
10
-171.49760400000002
20
103.07251200000002
10
-171.64189099999999
20
102.86712900000001
10
-171.79289199999999
20
102.65246000000002
10
-171.953048
20
102.42463900000001
10
-172.12521300000003
20
102.17966699999999
10
-169.16435200000001
20
85.396586000000013
10
-225.44579999999999
20
75.472807000000003
10
-226.75424200000003
20
82.883996999999994
10
-226.91934200000003
20
82.999640000000014
10
-227.15217600000003
20
83.162622999999996
10
-227.37054400000002
20
83.315550000000002
10
-227.578338
20
83.461142000000009
10
-227.77975400000003
20
83.60214400000001
10
-228.17875600000002
20
83.881365000000002
10
-228.38404800000004
20
84.025126
10
-228.59854100000004
20
84.175303000000014
10
-229.07089200000001
20
84.505892000000017
10
-243.89248600000002
20
81.893148999999994
10
-244.00820899999999
20
81.727980000000002
10
-244.171188
20
81.495108000000002
10
-244.32392800000002
20
81.276667000000003
10
-244.46963500000004
20
81.068704999999994
10
-244.61076300000002
20
80.867266000000001
10
-244.75010600000002
20
80.668477999999993
10
-245.03375199999999
20
80.263033000000007
10
-245.18403599999999
20
80.048506000000003
10
-245.34349000000003
20
79.820891000000003
10
-245.51496800000001
20
79.576243000000005
10
-236.28559800000002
20
27.234011999999996
10
-236.120498
20
27.118652999999998
10
-235.66929600000003
20
26.802562000000005
10
-235.46113500000004
20
26.656867000000002
10
-235.25971900000002
20
26.515758000000002
10
-235.06109600000002
20
26.376764999999999
10
-234.86108400000003
20
26.236366000000004
10
-234.65576100000004
20
26.092787000000005
10
-234.441284
20
25.942506000000005
10
-234.21339399999999
20
25.783051
10
-233.968917
20
25.611954000000004
10
-217.17811499999999
20
28.571753999999999
10
-215.86967400000003
20
21.160603000000002
10
-215.70420799999999
20
21.044888
10
-215.25300600000003
20
20.729153
10
-215.04524200000003
20
20.583458
10
-214.84379500000003
20
20.442349
10
-214.44482400000001
20
20.163304000000004
0
LWPOLYLINE
5
101
100
AcDbEntity
8
0
100
AcDbPolyline
90
4
70
1
43
0.0
10
-153.229648
20
90.668823000000017
10
-167.11543699999999
20
88.220383999999996
10
-169.56387599999999
20
102.10617300000001
10
-155.678087
20
104.55461200000002
0
LWPOLYLINE
5
102
100
AcDbEntity
8
0
100
AcDbPolyline
90
4
70
1
43
0.0
10
-134.069503
20
92.565787999999998
10
-148.115849
20
91.336892000000006
10
-149.34474499999999
20
105.38323800000001
10
-135.29839899999999
20
106.61213400000001
0
LWPOLYLINE
5
103
100
AcDbEntity
8
0
100
AcDbPolyline
90
4
70
1
43
0.0
10
-226.62119899999999
20
68.057445000000001
10
-240.50698800000004
20
65.609005999999994
10
-242.95542699999999
20
79.494794999999996
10
-229.069638
20
81.943234000000004
0
LWPOLYLINE
5
104
100
AcDbEntity
8
0
100
AcDbPolyline
90
4
70
1
43
0.0
10
-187.44667200000004
20
65.292022000000003
10
-201.33246100000002
20
62.84358300000001
10
-203.7809
20
76.729371999999998
10
-189.89511100000001
20
79.177811000000005
0
LWPOLYLINE
5
105
100
AcDbEntity
8
0
100
AcDbPolyline
90
4
70
1
43
0.0
10
-206.20486299999999
20
61.982951
10
-220.09065200000003
20
59.534511999999999
10
-222.53909100000001
20
73.420300999999995
10
-208.65330200000002
20
75.868740000000003
0
LWPOLYLINE
5
106
100
AcDbEntity
8
0
100
AcDbPolyline
90
4
70
1
43
0.0
10
-149.926222
20
71.906593999999998
10
-163.81201100000001
20
69.458155000000005
10
-166.26045000000002
20
83.343943999999993
10
-152.374661
20
85.792383000000001
0
LWPOLYLINE
5
107
100
AcDbEntity
8
0
100
AcDbPolyline
90
4
70
1
43
0.0
10
-168.68694900000003
20
68.601067999999998
10
-182.57273800000002
20
66.152629000000019
10
-185.02117699999999
20
80.038418000000007
10
-171.13538800000001
20
82.486857000000015
0
LWPOLYLINE
5
108
100
AcDbEntity
8
0
100
AcDbPolyline
90
4
70
1
43
0.0
10
-113.67156100000001
20
105.37973000000001
10
-114.90045700000002
20
91.333383999999995
10
-128.94680299999999
20
92.562280000000001
10
-127.717907
20
106.60862600000002
0
LWPOLYLINE
5
109
100
AcDbEntity
8
0
100
AcDbPolyline
90
4
70
1
43
0.0
10
-93.452737999999997
20
102.10615300000001
10
-95.901177000000004
20
88.220364000000004
10
-109.78696600000001
20
90.668802999999997
10
-107.338527
20
104.554592
0
LWPOLYLINE
5
110
100
AcDbEntity
8
0
100
AcDbPolyline
90
4
70
1
43
0.0
10
-96.755778000000007
20
83.343800000000016
10
-99.204217
20
69.458010999999999
10
-113.09000600000002
20
71.906450000000007
10
-110.64156699999999
20
85.792239000000009
0
LWPOLYLINE
5
111
100
AcDbEntity
8
0
100
AcDbPolyline
90
4
70
1
43
0.0
10
-77.995062000000004
20
80.038272000000021
10
-80.443501000000012
20
66.152483000000018
10
-94.32929
20
68.600921999999997
10
-91.880851000000007
20
82.486711000000014
0
LWPOLYLINE
5
112
100
AcDbEntity
8
0
100
AcDbPolyline
90
4
70
1
43
0.0
10
-59.235760999999997
20
76.729509000000007
10
-61.684200000000004
20
62.843720000000005
10
-75.569989000000007
20
65.292158999999998
10
-73.121550000000013
20
79.177948000000001
0
LWPOLYLINE
5
113
100
AcDbEntity
8
0
100
AcDbPolyline
90
4
70
1
43
0.0
10
-40.477286999999997
20
73.420138000000009
10
-42.925725999999997
20
59.534349000000006
10
-56.811515
20
61.982788000000006
10
-54.363076
20
75.868577000000002
0
LWPOLYLINE
5
114
100
AcDbEntity
8
0
100
AcDbPolyline
90
4
70
1
43
0.0
10
-20.061069000000003
20
79.494958999999994
10
-22.509508
20
65.609170000000006
10
-36.395296999999999
20
68.057608999999999
10
-33.946857999999999
20
81.943398000000002
0
LWPOLYLINE
5
115
100
AcDbEntity
8
0
100
AcDbPolyline
90
4
70
1
43
0.0
10
-223.30927000000003
20
49.297418999999998
10
-237.19505900000001
20
46.848979999999997
10
-239.64349800000002
20
60.734769
10
-225.75770900000003
20
63.183208000000008
0
LWPOLYLINE
5
116
100
AcDbEntity
8
0
100
AcDbPolyline
90
4
70
1
43
0.0
10
-202.89301
20
43.22259600000001
10
-216.77879899999999
20
40.774157000000002
10
-219.227238
20
54.659946000000005
10
-205.34144900000001
20
57.108385000000006
0
LWPOLYLINE
5
117
100
AcDbEntity
8
0
100
AcDbPolyline
90
4
70
1
43
0.0
10
-184.134725
20
46.531998000000002
10
-198.02051399999999
20
44.083559000000001
10
-200.46895300000003
20
57.969347999999997
10
-186.58316400000001
20
60.417787000000004
0
LWPOLYLINE
5
118
100
AcDbEntity
8
0
100
AcDbPolyline
90
4
70
1
43
0.0
10
-165.375112
20
49.840702000000007
10
-179.26090099999999
20
47.392263
10
-181.70934
20
61.27805200000001
10
-167.82355100000001
20
63.726491000000003
0
LWPOLYLINE
5
119
100
AcDbEntity
8
0
100
AcDbPolyline
90
4
70
1
43
0.0
10
-146.61438400000003
20
53.146233000000009
10
-160.50017300000002
20
50.697794000000009
10
-162.948612
20
64.583583000000004
10
-149.06282300000001
20
67.032021999999998
0
LWPOLYLINE
5
120
100
AcDbEntity
8
0
100
AcDbPolyline
90
4
70
1
43
0.0
10
-220.00310100000002
20
30.536001000000002
10
-233.88889000000003
20
28.087561999999998
10
-236.33732900000001
20
41.973351000000001
10
-222.45153999999999
20
44.421790000000001
0
LWPOLYLINE
5
121
100
AcDbEntity
8
0
100
AcDbPolyline
90
4
70
1
43
0.0
10
-180.82854100000003
20
27.770578
10
-194.71433000000002
20
25.322139000000004
10
-197.162769
20
39.207928000000003
10
-183.27698000000001
20
41.656367000000003
0
LWPOLYLINE
5
122
100
AcDbEntity
8
0
100
AcDbPolyline
90
4
70
1
43
0.0
10
-199.58674999999999
20
24.461514999999999
10
-213.47253900000001
20
22.013076000000002
10
-215.92097800000002
20
35.898865000000001
10
-202.03518900000003
20
38.347304000000001
0
LWPOLYLINE
5
123
100
AcDbEntity
8
0
100
AcDbPolyline
90
4
70
1
43
0.0
10
-162.06885199999999
20
31.079628
10
-175.95464100000001
20
28.631188999999999
10
-178.40307999999999
20
42.516978000000009
10
-164.517291
20
44.965417000000009
0
LWPOLYLINE
5
124
100
AcDbEntity
8
0
100
AcDbPolyline
90
4
70
1
43
0.0
10
-143.30811800000001
20
34.385151
10
-157.193907
20
31.936712000000004
10
-159.642346
20
45.822501000000003
10
-145.75655699999999
20
48.27094000000001
0
LWPOLYLINE
5
125
100
AcDbEntity
8
0
100
AcDbPolyline
90
4
70
1
43
0.0
10
-100.06802999999999
20
64.583726000000013
10
-102.516469
20
50.69793700000001
10
-116.40225800000002
20
53.146376000000004
10
-113.95381900000001
20
67.032165000000006
0
LWPOLYLINE
5
126
100
AcDbEntity
8
0
100
AcDbPolyline
90
4
70
1
43
0.0
10
-81.307310999999999
20
61.278195000000004
10
-83.755750000000006
20
47.392406000000008
10
-97.641538999999995
20
49.840845000000009
10
-95.193100000000015
20
63.726634000000004
0
LWPOLYLINE
5
127
100
AcDbEntity
8
0
100
AcDbPolyline
90
4
70
1
43
0.0
10
-23.37303
20
60.734589
10
-25.821469
20
46.848799999999997
10
-39.707258000000003
20
49.297238999999998
10
-37.258819000000003
20
63.183028000000007
0
LWPOLYLINE
5
128
100
AcDbEntity
8
0
100
AcDbPolyline
90
4
70
1
43
0.0
10
-62.547621000000007
20
57.969144999999997
10
-64.99606
20
44.083356000000002
10
-78.881849000000003
20
46.531795000000002
10
-76.433409999999995
20
60.417583999999998
0
LWPOLYLINE
5
129
100
AcDbEntity
8
0
100
AcDbPolyline
90
4
70
1
43
0.0
10
-43.789293999999998
20
54.66011000000001
10
-46.237732999999999
20
40.774321
10
-60.123522000000008
20
43.222760000000008
10
-57.675083000000001
20
57.108549000000004
0
LWPOLYLINE
5
130
100
AcDbEntity
8
0
100
AcDbPolyline
90
4
70
1
43
0.0
10
-103.373898
20
45.822361999999998
10
-105.82233700000002
20
31.936572999999999
10
-119.70812600000001
20
34.385012000000003
10
-117.25968700000001
20
48.270800999999999
0
LWPOLYLINE
5
131
100
AcDbEntity
8
0
100
AcDbPolyline
90
4
70
1
43
0.0
10
-84.613169999999997
20
42.516832000000008
10
-87.061609000000004
20
28.631042999999998
10
-100.94739800000001
20
31.079481999999999
10
-98.498958999999999
20
44.965271000000008
0
LWPOLYLINE
5
132
100
AcDbEntity
8
0
100
AcDbPolyline
90
4
70
1
43
0.0
10
-65.853885000000005
20
39.208072000000001
10
-68.302323999999999
20
25.322282999999999
10
-82.188113000000001
20
27.770721999999999
10
-79.739673999999994
20
41.656511000000009
0
LWPOLYLINE
5
133
100
AcDbEntity
8
0
100
AcDbPolyline
90
4
70
1
43
0.0
10
-26.679188000000003
20
41.973514999999999
10
-29.127627
20
28.087726000000004
10
-43.013415999999999
20
30.536165000000004
10
-40.564977000000006
20
44.421953999999999
0
LWPOLYLINE
5
134
100
AcDbEntity
8
0
100
AcDbPolyline
90
4
70
1
43
0.0
10
-47.095392000000004
20
35.898696000000001
10
-49.543831000000004
20
22.012906999999998
10
-63.42962
20
24.461346000000002
10
-60.981181000000007
20
38.347135000000002
0
CIRCLE
5
135
100
AcDbEntity
8
0
100
AcDbCircle
10
-145.42066199999999
20
84.228289000000004
30
0
40
1.1000000000000001
210
0
220
0
230
1
0
CIRCLE
5
136
100
AcDbEntity
8
0
100
AcDbCircle
10
-143.76965300000001
20
67.574341000000004
30
0
40
1.1000000000000001
210
0
220
0
230
1
0
CIRCLE
5
137
100
AcDbEntity
8
0
100
AcDbCircle
10
-117.67821499999999
20
84.228938999999997
30
0
40
1.1000000000000001
210
0
220
0
230
1
0
CIRCLE
5
138
100
AcDbEntity
8
0
100
AcDbCircle
10
-122.691886
20
75.716876999999997
30
0
40
0.25
210
0
220
0
230
1
0
CIRCLE
5
139
100
AcDbEntity
8
0
100
AcDbCircle
10
-122.691886
20
74.966876999999997
30
0
40
0.25
210
0
220
0
230
1
0
CIRCLE
5
140
100
AcDbEntity
8
0
100
AcDbCircle
10
-122.691886
20
74.216876999999997
30
0
40
0.25
210
0
220
0
230
1
0
CIRCLE
5
141
100
AcDbEntity
8
0
100
AcDbCircle
10
-119.329216
20
67.573690999999997
30
0
40
1.1000000000000001
210
0
220
0
230
1
0
CIRCLE
5
142
100
AcDbEntity
8
0
100
AcDbCircle
10
-222.57315000000003
20
59.192993999999999
30
0
40
1.1000000000000001
210
0
220
0
230
1
0
CIRCLE
5
143
100
AcDbEntity
8
0
100
AcDbCircle
10
-181.305206
20
44.561999999999998
30
0
40
1.1000000000000001
210
0
220
0
230
1
0
CIRCLE
5
144
100
AcDbEntity
8
0
100
AcDbCircle
10
-81.800720000000013
20
44.561999999999998
30
0
40
1.1000000000000001
210
0
220
0
230
1
0
CIRCLE
5
145
100
AcDbEntity
8
0
100
AcDbCircle
10
-40.532779000000005
20
59.191694000000005
30
0
40
1.1000000000000001
210
0
220
0
230
1
0
ENDSEC
0
SECTION
2
OBJECTS
0
DICTIONARY
5
C
100
AcDbDictionary
3
ACAD_GROUP
350
D
3
ACAD_MLINESTYLE
350
17
0
DICTIONARY
5
D
100
AcDbDictionary
0
DICTIONARY
5
1A
330
C
100
AcDbDictionary
0
DICTIONARY
5
17
100
AcDbDictionary
0
ENDSEC
0
EOF
