0
SECTION
2
HEADER
9
$INSUNITS
70
4
9
$ACADVER
1
AC1014
9
$HANDSEED
5
FFFF
0
ENDSEC
0
SECTION
2
TABLES
0
TABLE
2
VPORT
5
8
100
AcDbSymbolTable
0
ENDTAB
0
TABLE
2
LTYPE
5
5
100
AcDbSymbolTable
0
LTYPE
5
14
100
AcDbSymbolTableRecord
100
AcDbLinetypeTableRecord
2
BYBLOCK
70
0
0
LTYPE
5
15
100
AcDbSymbolTableRecord
100
AcDbLinetypeTableRecord
2
BYLAYER
70
0
0
ENDTAB
0
TABLE
2
LAYER
5
2
100
AcDbSymbolTable
70
2
0
LAYER
5
50
100
AcDbSymbolTableRecord
100
AcDbLayerTableRecord
2
0
70
0
6
CONTINUOUS
0
ENDTAB
0
TABLE
2
STYLE
5
3
100
AcDbSymbolTable
70
1
0
STYLE
5
11
100
AcDbSymbolTableRecord
100
AcDbTextStyleTableRecord
2
STANDARD
70
0
0
ENDTAB
0
TABLE
2
VIEW
5
6
100
AcDbSymbolTable
70
0
0
ENDTAB
0
TABLE
2
UCS
5
7
100
AcDbSymbolTable
70
0
0
ENDTAB
0
TABLE
2
APPID
5
9
100
AcDbSymbolTable
70
2
0
APPID
5
12
100
AcDbSymbolTableRecord
100
AcDbRegAppTableRecord
2
ACAD
70
0
0
ENDTAB
0
TABLE
2
DIMSTYLE
5
A
100
AcDbSymbolTable
70
1
0
ENDTAB
0
TABLE
2
BLOCK_RECORD
5
1
100
AcDbSymbolTable
70
1
0
BLOCK_RECORD
5
1F
100
AcDbSymbolTableRecord
100
AcDbBlockTableRecord
2
*MODEL_SPACE
0
BLOCK_RECORD
5
1B
100
AcDbSymbolTableRecord
100
AcDbBlockTableRecord
2
*PAPER_SPACE
0
ENDTAB
0
ENDSEC
0
SECTION
2
BLOCKS
0
BLOCK
5
20
100
AcDbEntity
100
AcDbBlockBegin
2
*MODEL_SPACE
0
ENDBLK
5
21
100
AcDbEntity
100
AcDbBlockEnd
0
BLOCK
5
1C
100
AcDbEntity
100
AcDbBlockBegin
2
*PAPER_SPACE
0
ENDBLK
5
1D
100
AcDbEntity
100
AcDbBlockEnd
0
ENDSEC
0
SECTION
2
ENTITIES
0
LWPOLYLINE
5
100
100
AcDbEntity
8
0
100
AcDbPolyline
90
136
70
1
43
0.0
10
-152.07966817783301
20
107.672427100904
10
-170.49537600000002
20
104.498087
10
-170.611435
20
104.33266700000001
10
-170.77548200000001
20
104.09959600000001
10
-170.92929000000001
20
103.88097600000002
10
-171.07534699999999
20
103.672938
10
-171.217163
20
103.471476
10
-171.35685699999999
20
103.27264599999999
10
-171.49760400000002
20
103.07251200000002
10
-171.64189099999999
20
102.86712900000001
10
-171.79289199999999
20
102.65246000000002
10
-171.953048
20
102.42463900000001
10
-172.12521300000003
20
102.17966699999999
10
-169.16435200000001
20
85.396586000000013
10
-225.44579999999999
20
75.472807000000003
10
-226.75424200000003
20
82.883996999999994
10
-226.91934200000003
20
82.999640000000014
10
-227.15217600000003
20
83.162622999999996
10
-227.37054400000002
20
83.315550000000002
10
-227.578338
20
83.461142000000009
10
-227.77975400000003
20
83.60214400000001
10
-228.17875600000002
20
83.881365000000002
10
-228.38404800000004
20
84.025126
10
-228.59854100000004
20
84.175303000000014
10
-229.07089200000001
20
84.505892000000017
10
-243.89248600000002
20
81.893148999999994
10
-244.00820899999999
20
81.727980000000002
10
-244.171188
20
81.495108000000002
10
-244.32392800000002
20
81.276667000000003
10
-244.46963500000004
20
81.068704999999994
10
-244.61076300000002
20
80.867266000000001
10
-244.75010600000002
20
80.668477999999993
10
-245.03375199999999
20
80.263033000000007
10
-245.18403599999999
20
80.048506000000003
10
-245.34349000000003
20
79.820891000000003
10
-245.51496800000001
20
79.576243000000005
10
-236.28559800000002
20
27.234011999999996
10
-236.120498
20
27.118652999999998
10
-235.66929600000003
20
26.802562000000005
10
-235.46113500000004
20
26.656867000000002
10
-235.25971900000002
20
26.515758000000002
10
-235.06109600000002
20
26.376764999999999
10
-234.86108400000003
20
26.236366000000004
10
-234.65576100000004
20
26.092787000000005
10
-234.441284
20
25.942506000000005
10
-234.21339399999999
20
25.783051
10
-233.968917
20
25.611954000000004
10
-217.17811499999999
20
28.571753999999999
10
-215.86967400000003
20
21.160603000000002
10
-215.70420799999999
20
21.044888
10
-215.25300600000003
20
20.729153
10
-215.04524200000003
20
20.583458
10
-214.84379500000003
20
20.442349
10
-214.44482400000001
20
20.163304000000004
10
-214.02500900000004
20
19.869443000000004
10
-213.79745400000002
20
19.709989
10
-213.55264199999999
20
19.538536000000001
10
-159.25967167762801
20
29.111349947036903
10
-159.24208497864399
20
29.011610810673503
10
-140.38301681067304
20
32.3369730213564
10
-141.47100210477899
20
38.507244867644701
10
-121.56922253062299
20
38.507244867644701
10
-122.29460899999999
20
34.391883999999997
10
-122.27563913747701
20
34.364816845068198
10
-122.63322718932601
20
32.336834021356403
10
-103.77415902135601
20
29.011471810673498
10
-103.75973046599802
20
29.0933002226854
10
-49.569637
20
19.538882999999998
10
-49.404434000000002
20
19.654598
10
-49.171598000000003
20
19.817581000000001
10
-48.953157000000004
20
19.970333
10
-48.74519500000001
20
20.116028
10
-48.543757999999997
20
20.257137000000004
10
-48.344970000000004
20
20.396485999999999
10
-48.144872000000007
20
20.536536999999999
10
-47.939520999999999
20
20.680116999999999
10
-47.724997999999999
20
20.830397999999999
10
-47.497382999999999
20
20.989853000000004
10
-47.252735000000001
20
21.161305000000002
10
-45.946436000000006
20
28.571753999999999
10
-29.155519999999999
20
25.611946000000003
10
-28.990349000000002
20
25.727661000000005
10
-28.53904
20
26.043396000000001
10
-28.331078000000005
20
26.189091000000001
10
-28.129677000000001
20
26.330200000000001
10
-27.930887000000002
20
26.469193000000004
10
-27.525475000000004
20
26.753178999999999
10
-27.310949999999899
20
26.903461
10
-27.083337000000004
20
27.062915000000004
10
-26.838687
20
27.234012
10
-17.609490999999998
20
79.576243000000005
10
-17.725166999999999
20
79.741415000000003
10
-17.888255999999998
20
79.974287000000004
10
-18.041184999999999
20
80.192728000000017
10
-18.186847
20
80.400690000000012
10
-18.327887
20
80.602125000000001
10
-18.607216999999999
20
81.001013
10
-18.751009
20
81.206361999999999
10
-18.901222000000001
20
81.420884999999998
10
-19.060607000000005
20
81.64850100000001
10
-19.231915000000001
20
81.893148999999994
10
-34.053026000000003
20
84.505823000000007
10
-34.218195999999999
20
84.390146000000001
10
-34.669468999999999
20
84.07409100000001
10
-34.877431000000001
20
83.928499000000002
10
-35.078832000000006
20
83.787424000000001
10
-35.277622000000001
20
83.648218
10
-35.477752000000002
20
83.508097000000006
10
-35.683069000000003
20
83.364305999999999
10
-35.897593999999998
20
83.214090999999996
10
-36.125205999999899
20
83.054704999999998
10
-36.369822999999997
20
82.883398000000014
10
-37.676192999999998
20
75.472807000000003
10
-93.83371007075452
20
85.374775504141212
10
-93.830676810673509
20
85.391977978643595
10
-93.954372598263603
20
85.413788881176501
10
-90.997596000000001
20
102.18764700000001
10
-91.113310999999996
20
102.352816
10
-91.276290000000003
20
102.58565000000002
10
-91.429046
20
102.80408700000001
10
-91.574744999999993
20
103.01204900000002
10
-91.715850000000003
20
103.21345000000001
10
-91.854843000000002
20
103.41224099999999
10
-91.995254000000003
20
103.61233
10
-92.138831999999994
20
103.81769
10
-92.448561999999995
20
104.25979100000001
10
-92.619667000000007
20
104.504435
10
-109.41082700000001
20
107.46664600000001
10
-110.937460158373
20
107.659519754766
10
-110.93610114319901
20
107.67505336977401
10
-130.01323036977399
20
109.34408585680102
10
-130.014095334529
20
109.33419926410302
10
-130.03563700000001
20
109.336085
10
-133.002068735758
20
109.336085
10
-133.00307563022599
20
109.34759385680101
10
-152.080204856801
20
107.678561369774
0
LWPOLYLINE
5
101
100
AcDbEntity
8
0
100
AcDbPolyline
90
43
70
1
43
0.0
10
-128.66444342517914
20
61.870818744696116
10
-128.40188599999999
20
61.870677177665002
10
-128.40188600000002
20
59.737665490262501
42
-0.11235366120165044
10
-134.70401703059099
20
59.74372538300598
10
-134.70401504688809
20
61.874075194130398
10
-134.39346196213305
20
61.873907748500756
10
-134.49387528099322
20
61.723627523003508
10
-134.52880026598118
20
61.548047480017381
10
-134.49387525096901
20
61.372467443003352
10
-134.39441645824266
20
61.223615831507033
10
-134.24556482973898
20
61.124157064233557
10
-134.069984786753
20
61.089232079245328
10
-133.89440474973901
20
61.124157094257143
10
-133.74555313824294
20
61.223615886983708
10
-133.64609437096917
20
61.372467515487443
10
-133.61116938598099
20
61.548047558473201
10
-133.64609440099281
20
61.723627595487329
10
-133.74627454525404
20
61.87355879379993
10
-131.85437686239692
20
61.872538710892826
10
-131.95387528099303
20
61.723627740169562
10
-131.98880026598124
20
61.548047697183641
10
-131.95387525096933
20
61.372467660169434
10
-131.85441645824292
20
61.223616048673001
10
-131.70556482973907
20
61.12415728139969
10
-131.529984786753
20
61.089232296411559
10
-131.35440474973899
20
61.124157311423346
10
-131.20555313824289
20
61.223616104149905
10
-131.10609437096906
20
61.372467732653668
10
-131.07116938598111
20
61.548047775639468
10
-131.1060944009931
20
61.723627812653532
10
-131.20535898521641
20
61.872188769247842
10
-129.31529176261617
20
61.87116967330941
10
-129.41387528099312
20
61.723627957335701
10
-129.44880026598094
20
61.548047914350008
10
-129.41387525096906
20
61.372467877335765
10
-129.31441645824279
20
61.223616265839347
10
-129.16556482973908
20
61.124157498565978
10
-128.98998478675304
20
61.089232513577826
10
-128.81440474973897
20
61.124157528589656
10
-128.66555313824298
20
61.223616321316221
10
-128.56609437096927
20
61.372467949819978
10
-128.53116938598131
20
61.548047992805735
10
-128.56609440099305
20
61.723628029819928
0
LWPOLYLINE
5
102
100
AcDbEntity
8
0
100
AcDbPolyline
90
4
70
1
43
0.0
10
-135.60503744959624
20
44.514012368000301
10
-135.60503734699802
20
43.314014768000305
42
-0.99999999999999989
10
-136.10503634699799
20
43.314014725251099
10
-136.10503644959581
20
44.514012325251102
42
-0.99999999999999989
0
LWPOLYLINE
5
103
100
AcDbEntity
8
0
100
AcDbPolyline
90
112
70
1
43
0.0
10
-136.10503606475282
20
40.012845287823602
10
-138.7033328407434
20
40.012845287823602
42
0.88481086715152124
10
-139.59663311939241
20
40.012845287823623
10
-139.97206758607589
20
40.01284528782363
10
-139.99609255507974
20
40.133627052571612
10
-140.09555134780618
20
40.282478664068016
10
-140.24440297630983
20
40.381937431341399
10
-140.41998301929601
20
40.416862416329458
10
-140.53828607054092
20
40.393330494173682
10
-140.53761629078298
20
42.062630183482803
10
-140.41998315800603
20
42.039231536329467
10
-140.24440312099205
20
42.074156551341353
10
-140.09555150949589
20
42.173615344067727
10
-139.996092742222
20
42.32246697257164
10
-139.96116775723394
20
42.498047015557461
10
-139.99609277224596
20
42.673627052571433
10
-140.09555156497294
20
42.822478664067923
10
-140.24440319347602
20
42.921937431341284
10
-140.41998323646203
20
42.956862416329429
10
-140.53726685355406
20
42.933533272084368
10
-140.53659723650577
20
44.602427438122405
10
-140.419983375172
20
44.579231536329537
10
-140.24440333815812
20
44.614156551341509
10
-140.09555172666217
20
44.713615344068025
10
-139.99609295938896
20
44.862466972571397
10
-139.96116797440024
20
45.038047015557858
10
-139.99609298941203
20
45.213627052571461
10
-140.09555178213895
20
45.362478664067829
10
-140.24440341064212
20
45.461937431341177
10
-140.41998345362802
20
45.496862416329513
10
-140.53624763656791
20
45.473736049995125
10
-140.53557818222922
20
47.142224692757182
10
-140.41998359233901
20
47.119231536329551
10
-140.24440355532491
20
47.154156551341245
10
-140.09555194382801
20
47.253615344068088
10
-139.99609317655506
20
47.402466972571425
10
-139.9611681915668
20
47.578047015557587
10
-139.99609320657851
20
47.753627052571652
10
-140.09555199930509
20
47.902478664068056
10
-140.24440362780894
20
48.001937431341503
10
-140.41998367079501
20
48.036862416329519
10
-140.53522841958096
20
48.013938827906017
10
-140.53455912795192
20
49.682021947386794
10
-140.419983809505
20
49.659231536329528
10
-140.24440377249101
20
49.694156551341344
10
-140.095552160994
20
49.793615344068115
10
-139.99609339372091
20
49.942466972571353
10
-139.96116840873279
20
50.118047015557536
10
-139.9960934237449
20
50.293627052571559
10
-140.09555221647139
20
50.44247866406792
10
-140.2444038449749
20
50.541937431341417
10
-140.41998388796097
20
50.576862416329519
10
-140.53420920259472
20
50.554141605816689
10
-140.53354007367523
20
52.221819202023596
10
-140.41998402667195
20
52.199231536329592
10
-140.24440398965703
20
52.234156551341471
10
-140.09555237816107
20
52.333615344067972
10
-139.99609361088721
20
52.482466972571878
10
-139.96116862589906
20
52.658047015557543
10
-139.99609364091094
20
52.833627052571579
10
-140.09555243363778
20
52.982478664068083
10
-140.24440406214103
20
53.081937431341387
10
-140.41998410512704
20
53.116862416329546
10
-140.53318998560792
20
53.094344383727396
10
-140.53252101939827
20
54.761616456659716
10
-140.41998424383701
20
54.739231536329562
10
-140.24440420682311
20
54.774156551341548
10
-140.09555259532709
20
54.873615344068014
10
-139.99609382805397
20
55.022466972571429
10
-139.96116884306539
20
55.19804701555789
10
-139.99609385807724
20
55.373627052571479
10
-140.09555265080405
20
55.522478664067833
10
-140.24440427930708
20
55.62193743134128
10
-140.419984322293
20
55.656862416329531
10
-140.5321707686212
20
55.63454716163821
10
-140.53150196512169
20
57.30141371129487
10
-140.41998446100303
20
57.279231536329654
10
-140.24440442399003
20
57.314156551341462
10
-140.09555281249305
20
57.413615344068205
10
-139.99609404521982
20
57.562466972571443
10
-139.96116906023167
20
57.738047015557513
10
-139.99609407524375
20
57.91362705257167
10
-140.09555286797033
20
58.062478664067996
10
-140.24440449647389
20
58.161937431341421
10
-140.41998453946002
20
58.196862416329608
10
-140.53115155163508
20
58.174749939548988
10
-140.53048291084508
20
59.841210965929612
10
-140.41998467817001
20
59.819231536329617
10
-140.24440464115597
20
59.854156551341447
10
-140.09555302965978
20
59.953615344067792
10
-139.99609426238607
20
60.102466972571733
10
-139.96116927739808
20
60.278047015557668
10
-139.99609429240982
20
60.453627052571683
10
-140.09555308513677
20
60.602478664068286
10
-140.24440471363997
20
60.701937431341484
10
-140.41998475662604
20
60.7368624163296
10
-140.53013233444909
20
60.714952717695894
10
-140.53008080228309
20
60.867947979388504
10
-140.50433057016181
20
61.129101909118262
10
-140.40356879096026
20
61.372362797733359
10
-140.24327956882016
20
61.581257491437988
10
-140.03438490252506
20
61.741546749298017
10
-139.95135475025799
20
61.77593891962924
42
0.057368756388622419
10
-137.04767934678185
20
60.173546690050934
42
0.52853454049313009
10
-136.35277450649969
20
59.908800224864144
42
0.029597738220897306
10
-134.70401731699098
20
59.436153295402136
10
-134.70403058697499
20
45.185173000000098
10
-136.638694264278
20
45.185172999999999
10
-135.79029703271794
20
40.375507963281692
42
-0.33941392799992637
10
-135.60503707511504
20
40.134036368000309
10
-135.605037006716
20
39.33403797326865
42
-1.0000000105367119
10
-136.10503600671601
20
39.33403792525111
0
CIRCLE
5
104
100
AcDbEntity
8
0
100
AcDbCircle
10
-128.640029695549
20
43.414030403498202
30
0
40
0.38099999999999995
210
0
220
-0
230
1
0
LWPOLYLINE
5
105
100
AcDbEntity
8
0
100
AcDbPolyline
90
112
70
1
43
0.0
10
-127.33761561281312
20
40.345973475331903
10
-126.48464429559502
20
45.185166000000009
10
-128.40188599999999
20
45.185166000000009
10
-128.40188599999999
20
59.43022499931881
42
0.030304573230778446
10
-126.71359886533307
20
59.913347237088566
42
0.54057138565747986
10
-126.01028618414887
20
60.182317350945176
42
0.057120226423269527
10
-123.12085486228804
20
61.780974520707339
10
-123.02567114252504
20
61.741548203517766
10
-122.81677644882086
20
61.581258981378078
10
-122.65648719095992
20
61.372364315082642
10
-122.55572537016192
20
61.129103443697844
10
-122.52135657746885
20
60.868125566799698
10
-122.52141870633011
20
60.713279720609137
10
-122.63998475662602
20
60.736863936493499
10
-122.81556479363998
20
60.701938921481613
10
-122.96441640513612
20
60.602480128755218
10
-123.06387517240984
20
60.453628500251284
10
-123.09880015739786
20
60.278048457265399
10
-123.06387514238595
20
60.102468420251576
10
-122.96441634965964
20
59.953616808755186
10
-122.81556472115602
20
59.854158041481682
10
-122.63998467816998
20
59.819233056493502
10
-122.52176799483529
20
59.842747799016458
10
-122.52243776080832
20
58.173482466215596
10
-122.63998453946
20
58.196863936493457
10
-122.81556457647399
20
58.161938921481536
10
-122.9644161879701
20
58.062480128755205
10
-123.0638749552439
20
57.913628500251306
10
-123.09879994023186
20
57.738048457265478
10
-123.06387492521999
20
57.56246842025152
10
-122.9644161324932
20
57.413616808755108
10
-122.8155645039898
20
57.314158041481704
10
-122.63998446100402
20
57.27923305649351
10
-122.52278721182201
20
57.3025450211058
10
-122.52345681508523
20
55.633685211578936
10
-122.639984322293
20
55.65686393649348
10
-122.8155643593071
20
55.621938921481771
10
-122.96441597080417
20
55.522480128755049
10
-123.06387473807712
20
55.373628500251641
10
-123.09879972306513
20
55.198048457265408
10
-123.06387470805363
20
55.022468420251364
10
-122.96441591532705
20
54.873616808755116
10
-122.81556428682308
20
54.774158041481549
10
-122.63998424383701
20
54.739233056493532
10
-122.52380642880786
20
54.762342243195121
10
-122.52447586936165
20
53.093887956944208
10
-122.63998410512704
20
53.116863936493459
10
-122.81556414214103
20
53.081938921481637
10
-122.96441575363792
20
52.982480128754801
10
-123.06387452091087
20
52.833628500251478
10
-123.09879950589904
20
52.658048457265451
10
-123.06387449088723
20
52.482468420251351
10
-122.96441569816081
20
52.333616808754961
10
-122.81556406965706
20
52.234158041481606
10
-122.639984026671
20
52.199233056493462
10
-122.52482564579418
20
52.222139465284407
10
-122.52549492363818
20
50.554090702308969
10
-122.63998388796098
20
50.576863936493368
10
-122.81556392497494
20
50.541938921481481
10
-122.96441553647105
20
50.442480128755072
10
-123.0638743037448
20
50.293628500251167
10
-123.09879928873285
20
50.118048457265445
10
-123.06387427372103
20
49.942468420251458
10
-122.96441548099422
20
49.793616808754955
10
-122.81556385249095
20
49.694158041481586
10
-122.63998380950498
20
49.659233056493449
10
-122.52584486278069
20
49.681936687373707
10
-122.52651397791469
20
48.014293447674774
10
-122.639983670795
20
48.036863936493425
10
-122.81556370780896
20
48.001938921481475
10
-122.96441531930503
20
47.90248012875508
10
-123.06387408657835
20
47.753628500251651
10
-123.09879907156684
20
47.578048457265183
10
-123.06387405655494
20
47.402468420251409
10
-122.96441526382827
20
47.253616808754899
10
-122.81556363532501
20
47.154158041481587
10
-122.63998359233901
20
47.119233056493393
10
-122.52686407976705
20
47.141733909462999
10
-122.52753303219143
20
45.474496193034604
10
-122.63998345362802
20
45.496863936493376
10
-122.81556349064209
20
45.461938921481611
10
-122.96441510213911
20
45.362480128754896
10
-123.06387386941212
20
45.213628500251588
10
-123.09879885440024
20
45.038048457265347
10
-123.06387383938842
20
44.86246842025129
10
-122.96441504666186
20
44.713616808754864
10
-122.81556341815801
20
44.614158041481602
10
-122.63998337517201
20
44.579233056493393
10
-122.52788329675313
20
44.601531131552264
10
-122.52855208646822
20
42.934698938405482
10
-122.639983236462
20
42.956863936493377
10
-122.81556327347607
20
42.921938921481619
10
-122.96441488497209
20
42.822480128755103
10
-123.0638736522458
20
42.673628500251127
10
-123.09879863723401
20
42.498048457265334
10
-123.06387362222205
20
42.322468420251333
10
-122.96441482949561
20
42.173616808755057
10
-122.81556320099199
20
42.074158041481581
10
-122.63998315800599
20
42.039233056493373
10
-122.52890251373928
20
42.061328353641699
10
-122.52957114074471
20
40.394901683770151
10
-122.63998301929603
20
40.416863936493399
10
-122.81556305631
20
40.381938921481499
10
-122.964414667806
20
40.282480128755019
10
-123.06387343507993
20
40.133628500251078
10
-123.08789867057429
20
40.012845287823623
10
-123.46333268088435
20
40.012845287823602
42
0.88481346773766301
10
-124.35663327925147
20
40.01284528782363
10
-126.95501626475313
20
40.012845287823602
10
-126.955016206716
20
39.334038707564389
42
-0.99999999999999989
10
-127.45501520671603
20
39.33403866481521
10
-127.45501527511492
20
40.134037064815203
42
-0.25846625955517721
0
LWPOLYLINE
5
106
100
AcDbEntity
8
0
100
AcDbPolyline
90
4
70
1
43
0.0
10
-127.45501554699786
20
43.314015464815199
10
-127.45501564959599
20
44.514013064815209
42
-0.99999999999999989
10
-126.95501664959605
20
44.514013107564409
10
-126.95501654699814
20
43.314015507564399
42
-0.99999999999999989
0
CIRCLE
5
107
100
AcDbEntity
8
0
100
AcDbCircle
10
-134.420028295549
20
43.414029909316803
30
0
40
0.38099999999999995
210
0
220
-0
230
1
0
LWPOLYLINE
5
108
100
AcDbEntity
8
0
100
AcDbPolyline
90
24
70
1
43
0.0
10
-125.848268294116
20
71.972292184339395
10
-125.72396829411602
20
71.876292184339405
10
-125.62866829411601
20
71.752292184339396
10
-125.568768294116
20
71.6072921843394
10
-125.54826829411601
20
71.452292184339399
10
-125.568768294116
20
71.297292184339398
10
-125.62866829411601
20
71.152292184339402
10
-125.72396829411602
20
71.028292184339406
10
-125.848268294116
20
70.932292184339403
10
-125.992968294116
20
70.8722921843394
10
-126.14826829411599
20
70.852292184339404
10
-126.30356829411602
20
70.8722921843394
10
-126.448268294116
20
70.932292184339403
10
-126.57256829411601
20
71.028292184339406
10
-126.667868294116
20
71.152292184339402
10
-126.72786829411601
20
71.297292184339398
10
-126.748268294116
20
71.452292184339399
10
-126.72786829411601
20
71.6072921843394
10
-126.667868294116
20
71.752292184339396
10
-126.57256829411601
20
71.876292184339405
10
-126.448268294116
20
71.972292184339395
10
-126.30356829411602
20
72.032292184339397
10
-126.14826829411599
20
72.052292184339393
10
-125.992968294116
20
72.032292184339397
0
LWPOLYLINE
5
109
100
AcDbEntity
8
0
100
AcDbPolyline
90
24
70
1
43
0.0
10
-125.62866829411601
20
77.0922921843393
10
-125.568768294116
20
76.947292184339318
10
-125.54826829411601
20
76.792292184339303
10
-125.568768294116
20
76.637292184339302
10
-125.62866829411601
20
76.492292184339306
10
-125.72396829411602
20
76.368292184339296
10
-125.848268294116
20
76.272292184339307
10
-125.992968294116
20
76.212292184339304
10
-126.14826829411599
20
76.192292184339294
10
-126.30356829411602
20
76.212292184339304
10
-126.448268294116
20
76.272292184339307
10
-126.57256829411601
20
76.368292184339296
10
-126.667868294116
20
76.492292184339306
10
-126.72786829411601
20
76.637292184339302
10
-126.748268294116
20
76.792292184339303
10
-126.72786829411601
20
76.947292184339318
10
-126.667868294116
20
77.0922921843393
10
-126.57256829411601
20
77.216292184339295
10
-126.448268294116
20
77.312292184339299
10
-126.30356829411602
20
77.372292184339301
10
-126.14826829411599
20
77.392292184339311
10
-125.992968294116
20
77.372292184339301
10
-125.848268294116
20
77.312292184339299
10
-125.72396829411602
20
77.216292184339295
0
LWPOLYLINE
5
110
100
AcDbEntity
8
0
100
AcDbPolyline
90
24
70
1
43
0.0
10
-136.848268294116
20
76.502292184339296
10
-136.69296829411601
20
76.4822921843393
10
-136.54826829411601
20
76.422292184339298
10
-136.42396829411604
20
76.326292184339309
10
-136.328668294116
20
76.202292184339314
10
-136.268768294116
20
76.057292184339303
10
-136.248268294116
20
75.902292184339302
10
-136.268768294116
20
75.747292184339301
10
-136.328668294116
20
75.602292184339305
10
-136.42396829411604
20
75.478292184339296
10
-136.54826829411601
20
75.382292184339306
10
-136.69296829411601
20
75.322292184339304
10
-136.848268294116
20
75.302292184339294
10
-137.00356829411601
20
75.322292184339304
10
-137.14826829411601
20
75.382292184339306
10
-137.27256829411601
20
75.478292184339296
10
-137.36786829411599
20
75.602292184339305
10
-137.427868294116
20
75.747292184339301
10
-137.44826829411602
20
75.902292184339302
10
-137.427868294116
20
76.057292184339303
10
-137.36786829411599
20
76.202292184339314
10
-137.27256829411601
20
76.326292184339309
10
-137.14826829411601
20
76.422292184339298
10
-137.00356829411601
20
76.4822921843393
0
LWPOLYLINE
5
111
100
AcDbEntity
8
0
100
AcDbPolyline
90
24
70
1
43
0.0
10
-137.27256829411601
20
68.358292184339405
10
-137.36786829411599
20
68.4822921843394
10
-137.427868294116
20
68.627292184339396
10
-137.44826829411602
20
68.782292184339411
10
-137.427868294116
20
68.937292184339398
10
-137.36786829411599
20
69.082292184339295
10
-137.27256829411601
20
69.206292184339418
10
-137.14826829411601
20
69.302292184339393
10
-137.00356829411601
20
69.362292184339395
10
-136.848268294116
20
69.382292184339306
10
-136.69296829411601
20
69.362292184339395
10
-136.54826829411601
20
69.302292184339393
10
-136.42396829411604
20
69.206292184339418
10
-136.328668294116
20
69.082292184339295
10
-136.268768294116
20
68.937292184339398
10
-136.248268294116
20
68.782292184339411
10
-136.268768294116
20
68.627292184339396
10
-136.328668294116
20
68.4822921843394
10
-136.42396829411604
20
68.358292184339405
10
-136.54826829411601
20
68.262292184339401
10
-136.69296829411601
20
68.202292184339399
10
-136.848268294116
20
68.182292184339403
10
-137.00356829411601
20
68.202292184339399
10
-137.14826829411601
20
68.262292184339401
0
LWPOLYLINE
5
112
100
AcDbEntity
8
0
100
AcDbPolyline
90
24
70
1
43
0.0
10
-136.848268294116
20
69.962292184339404
10
-137.00356829411601
20
69.982292184339315
10
-137.14826829411601
20
70.042292184339317
10
-137.27256829411601
20
70.138292184339306
10
-137.36786829411599
20
70.262292184339401
10
-137.427868294116
20
70.407292184339397
10
-137.44826829411602
20
70.562292184339299
10
-137.427868294116
20
70.7172921843393
10
-137.36786829411599
20
70.862292184339395
10
-137.27256829411601
20
70.986292184339305
10
-137.14826829411601
20
71.082292184339394
10
-137.00356829411601
20
71.142292184339396
10
-136.848268294116
20
71.162292184339407
10
-136.69296829411601
20
71.142292184339396
10
-136.54826829411601
20
71.082292184339394
10
-136.42396829411604
20
70.986292184339305
10
-136.328668294116
20
70.862292184339395
10
-136.268768294116
20
70.7172921843393
10
-136.248268294116
20
70.562292184339299
10
-136.268768294116
20
70.407292184339397
10
-136.328668294116
20
70.262292184339401
10
-136.42396829411604
20
70.138292184339306
10
-136.54826829411601
20
70.042292184339317
10
-136.69296829411601
20
69.982292184339315
0
LWPOLYLINE
5
113
100
AcDbEntity
8
0
100
AcDbPolyline
90
24
70
1
43
0.0
10
-125.62866829411601
20
78.272292184339307
10
-125.72396829411602
20
78.148292184339198
10
-125.848268294116
20
78.052292184339294
10
-125.992968294116
20
77.992292184339306
10
-126.14826829411599
20
77.972292184339295
10
-126.30356829411602
20
77.992292184339306
10
-126.448268294116
20
78.052292184339294
10
-126.57256829411601
20
78.148292184339198
10
-126.667868294116
20
78.272292184339307
10
-126.72786829411601
20
78.417292184339303
10
-126.748268294116
20
78.572292184339304
10
-126.72786829411601
20
78.727292184339305
10
-126.667868294116
20
78.872292184339301
10
-126.57256829411601
20
78.996292184339296
10
-126.448268294116
20
79.0922921843393
10
-126.30356829411602
20
79.152292184339302
10
-126.14826829411599
20
79.172292184339298
10
-125.992968294116
20
79.152292184339302
10
-125.848268294116
20
79.0922921843393
10
-125.72396829411602
20
78.996292184339296
10
-125.62866829411601
20
78.872292184339301
10
-125.568768294116
20
78.727292184339305
10
-125.54826829411601
20
78.572292184339304
10
-125.568768294116
20
78.417292184339303
0
LWPOLYLINE
5
114
100
AcDbEntity
8
0
100
AcDbPolyline
90
24
70
1
43
0.0
10
-126.30356829411602
20
79.772292184339307
10
-126.448268294116
20
79.832292184339309
10
-126.57256829411601
20
79.928292184339298
10
-126.667868294116
20
80.052292184339308
10
-126.72786829411601
20
80.197292184339304
10
-126.748268294116
20
80.352292184339319
10
-126.72786829411601
20
80.507292184339306
10
-126.667868294116
20
80.652292184339302
10
-126.57256829411601
20
80.776292184339297
10
-126.448268294116
20
80.872292184339315
10
-126.30356829411602
20
80.932292184339317
10
-126.14826829411599
20
80.952292184339299
10
-125.992968294116
20
80.932292184339317
10
-125.848268294116
20
80.872292184339315
10
-125.72396829411602
20
80.776292184339297
10
-125.62866829411601
20
80.652292184339302
10
-125.568768294116
20
80.507292184339306
10
-125.54826829411601
20
80.352292184339319
10
-125.568768294116
20
80.197292184339304
10
-125.62866829411601
20
80.052292184339308
10
-125.72396829411602
20
79.928292184339298
10
-125.848268294116
20
79.832292184339309
10
-125.992968294116
20
79.772292184339307
10
-126.14826829411599
20
79.752292184339296
0
LWPOLYLINE
5
115
100
AcDbEntity
8
0
100
AcDbPolyline
90
24
70
1
43
0.0
10
-137.00356829411601
20
78.262292184339302
10
-136.848268294116
20
78.282292184339298
10
-136.69296829411601
20
78.262292184339302
10
-136.54826829411601
20
78.2022921843392
10
-136.42396829411604
20
78.106292184339196
10
-136.328668294116
20
77.982292184339201
10
-136.268768294116
20
77.837292184339304
10
-136.248268294116
20
77.682292184339303
10
-136.268768294116
20
77.527292184339302
10
-136.328668294116
20
77.382292184339306
10
-136.42396829411604
20
77.258292184339297
10
-136.54826829411601
20
77.162292184339293
10
-136.69296829411601
20
77.102292184339305
10
-136.848268294116
20
77.082292184339295
10
-137.00356829411601
20
77.102292184339305
10
-137.14826829411601
20
77.162292184339293
10
-137.27256829411601
20
77.258292184339297
10
-137.36786829411599
20
77.382292184339306
10
-137.427868294116
20
77.527292184339302
10
-137.44826829411602
20
77.682292184339303
10
-137.427868294116
20
77.837292184339304
10
-137.36786829411599
20
77.982292184339201
10
-137.27256829411601
20
78.106292184339196
10
-137.14826829411601
20
78.2022921843392
0
LWPOLYLINE
5
116
100
AcDbEntity
8
0
100
AcDbPolyline
90
24
70
1
43
0.0
10
-126.72786829411601
20
68.047292184339398
10
-126.667868294116
20
68.192292184339394
10
-126.57256829411601
20
68.316292184339403
10
-126.448268294116
20
68.412292184339407
10
-126.30356829411602
20
68.472292184339395
10
-126.14826829411599
20
68.492292184339405
10
-125.992968294116
20
68.472292184339395
10
-125.848268294116
20
68.412292184339407
10
-125.72396829411602
20
68.316292184339403
10
-125.62866829411601
20
68.192292184339394
10
-125.568768294116
20
68.047292184339398
10
-125.54826829411601
20
67.892292184339396
10
-125.568768294116
20
67.737292184339395
10
-125.62866829411601
20
67.592292184339414
10
-125.72396829411602
20
67.468292184339418
10
-125.848268294116
20
67.3722921843394
10
-125.992968294116
20
67.312292184339398
10
-126.14826829411599
20
67.292292184339402
10
-126.30356829411602
20
67.312292184339398
10
-126.448268294116
20
67.3722921843394
10
-126.57256829411601
20
67.468292184339418
10
-126.667868294116
20
67.592292184339414
10
-126.72786829411601
20
67.737292184339395
10
-126.748268294116
20
67.892292184339396
0
LWPOLYLINE
5
117
100
AcDbEntity
8
0
100
AcDbPolyline
90
4
70
1
43
0.0
10
-136.248268294116
20
66.402292184339416
10
-137.44826829411602
20
66.402292184339416
10
-137.44826829411602
20
67.602292184339404
10
-136.248268294116
20
67.602292184339404
0
LWPOLYLINE
5
118
100
AcDbEntity
8
0
100
AcDbPolyline
90
24
70
1
43
0.0
10
-136.42396829411604
20
73.698292184339294
10
-136.54826829411601
20
73.602292184339305
10
-136.69296829411601
20
73.542292184339303
10
-136.848268294116
20
73.522292184339307
10
-137.00356829411601
20
73.542292184339303
10
-137.14826829411601
20
73.602292184339305
10
-137.27256829411601
20
73.698292184339294
10
-137.36786829411599
20
73.822292184339318
10
-137.427868294116
20
73.9672921843393
10
-137.44826829411602
20
74.122292184339301
10
-137.427868294116
20
74.277292184339302
10
-137.36786829411599
20
74.422292184339298
10
-137.27256829411601
20
74.546292184339293
10
-137.14826829411601
20
74.642292184339297
10
-137.00356829411601
20
74.702292184339299
10
-136.848268294116
20
74.722292184339295
10
-136.69296829411601
20
74.702292184339299
10
-136.54826829411601
20
74.642292184339297
10
-136.42396829411604
20
74.546292184339293
10
-136.328668294116
20
74.422292184339298
10
-136.268768294116
20
74.277292184339302
10
-136.248268294116
20
74.122292184339301
10
-136.268768294116
20
73.9672921843393
10
-136.328668294116
20
73.822292184339318
0
LWPOLYLINE
5
119
100
AcDbEntity
8
0
100
AcDbPolyline
90
24
70
1
43
0.0
10
-136.248268294116
20
79.462292184339304
10
-136.268768294116
20
79.307292184339303
10
-136.328668294116
20
79.162292184339293
10
-136.42396829411604
20
79.038292184339198
10
-136.54826829411601
20
78.942292184339294
10
-136.69296829411601
20
78.88229218433932
10
-136.848268294116
20
78.862292184339296
10
-137.00356829411601
20
78.88229218433932
10
-137.14826829411601
20
78.942292184339294
10
-137.27256829411601
20
79.038292184339198
10
-137.36786829411599
20
79.162292184339293
10
-137.427868294116
20
79.307292184339303
10
-137.44826829411602
20
79.462292184339304
10
-137.427868294116
20
79.617292184339306
10
-137.36786829411599
20
79.762292184339302
10
-137.27256829411601
20
79.886292184339197
10
-137.14826829411601
20
79.982292184339315
10
-137.00356829411601
20
80.042292184339317
10
-136.848268294116
20
80.062292184339299
10
-136.69296829411601
20
80.042292184339317
10
-136.54826829411601
20
79.982292184339315
10
-136.42396829411604
20
79.886292184339197
10
-136.328668294116
20
79.762292184339302
10
-136.268768294116
20
79.617292184339306
0
LWPOLYLINE
5
120
100
AcDbEntity
8
0
100
AcDbPolyline
90
32
70
1
43
0.0
10
-135.79546829411601
20
65.2322921843394
10
-135.79546829411601
20
80.9822921843393
10
-135.781668294116
20
81.1042921843393
10
-135.74096829411599
20
81.221292184339319
10
-135.675468294116
20
81.325292184339304
10
-135.58836829411601
20
81.412292184339293
10
-135.48406829411601
20
81.478292184339296
10
-135.36786829411599
20
81.518292184339302
10
-135.24546829411599
20
81.532292184339298
10
-127.74546829411599
20
81.532292184339298
10
-127.623068294116
20
81.518292184339302
10
-127.506868294116
20
81.478292184339296
10
-127.40256829411599
20
81.412292184339293
10
-127.315468294116
20
81.325292184339304
10
-127.24996829411602
20
81.221292184339319
10
-127.20926829411601
20
81.1042921843393
10
-127.195468294116
20
80.9822921843393
10
-127.195468294116
20
65.2322921843394
10
-127.20926829411601
20
65.1102921843394
10
-127.24996829411602
20
64.993292184339396
10
-127.315468294116
20
64.889292184339396
10
-127.40256829411599
20
64.802292184339393
10
-127.506868294116
20
64.736292184339405
10
-127.623068294116
20
64.696292184339399
10
-127.74546829411599
20
64.682292184339403
10
-135.24546829411599
20
64.682292184339403
10
-135.36786829411599
20
64.696292184339399
10
-135.48406829411601
20
64.736292184339405
10
-135.58836829411601
20
64.802292184339393
10
-135.675468294116
20
64.889292184339396
10
-135.74096829411599
20
64.993292184339396
10
-135.781668294116
20
65.1102921843394
0
LWPOLYLINE
5
121
100
AcDbEntity
8
0
100
AcDbPolyline
90
24
70
1
43
0.0
10
-125.992968294116
20
74.432292184339303
10
-126.14826829411599
20
74.412292184339293
10
-126.30356829411602
20
74.432292184339303
10
-126.448268294116
20
74.492292184339306
10
-126.57256829411601
20
74.588292184339309
10
-126.667868294116
20
74.712292184339304
10
-126.72786829411601
20
74.8572921843393
10
-126.748268294116
20
75.012292184339316
10
-126.72786829411601
20
75.167292184339303
10
-126.667868294116
20
75.312292184339299
10
-126.57256829411601
20
75.436292184339294
10
-126.448268294116
20
75.532292184339298
10
-126.30356829411602
20
75.5922921843393
10
-126.14826829411599
20
75.612292184339296
10
-125.992968294116
20
75.5922921843393
10
-125.848268294116
20
75.532292184339298
10
-125.72396829411602
20
75.436292184339294
10
-125.62866829411601
20
75.312292184339299
10
-125.568768294116
20
75.167292184339303
10
-125.54826829411601
20
75.012292184339316
10
-125.568768294116
20
74.8572921843393
10
-125.62866829411601
20
74.712292184339304
10
-125.72396829411602
20
74.588292184339309
10
-125.848268294116
20
74.492292184339306
0
LWPOLYLINE
5
122
100
AcDbEntity
8
0
100
AcDbPolyline
90
24
70
1
43
0.0
10
-125.848268294116
20
73.752292184339296
10
-125.72396829411602
20
73.656292184339307
10
-125.62866829411601
20
73.532292184339298
10
-125.568768294116
20
73.387292184339302
10
-125.54826829411601
20
73.2322921843393
10
-125.568768294116
20
73.077292184339314
10
-125.62866829411601
20
72.932292184339403
10
-125.72396829411602
20
72.808292184339393
10
-125.848268294116
20
72.712292184339418
10
-125.992968294116
20
72.652292184339302
10
-126.14826829411599
20
72.63229218433932
10
-126.30356829411602
20
72.652292184339302
10
-126.448268294116
20
72.712292184339418
10
-126.57256829411601
20
72.808292184339393
10
-126.667868294116
20
72.932292184339403
10
-126.72786829411601
20
73.077292184339314
10
-126.748268294116
20
73.2322921843393
10
-126.72786829411601
20
73.387292184339302
10
-126.667868294116
20
73.532292184339298
10
-126.57256829411601
20
73.656292184339307
10
-126.448268294116
20
73.752292184339296
10
-126.30356829411602
20
73.812292184339299
10
-126.14826829411599
20
73.832292184339394
10
-125.992968294116
20
73.812292184339299
0
LWPOLYLINE
5
123
100
AcDbEntity
8
0
100
AcDbPolyline
90
24
70
1
43
0.0
10
-125.62866829411601
20
69.972292184339409
10
-125.568768294116
20
69.827292184339299
10
-125.54826829411601
20
69.672292184339398
10
-125.568768294116
20
69.517292184339396
10
-125.62866829411601
20
69.3722921843394
10
-125.72396829411602
20
69.248292184339306
10
-125.848268294116
20
69.152292184339402
10
-125.992968294116
20
69.092292184339399
10
-126.14826829411599
20
69.072292184339403
10
-126.30356829411602
20
69.092292184339399
10
-126.448268294116
20
69.152292184339402
10
-126.57256829411601
20
69.248292184339306
10
-126.667868294116
20
69.3722921843394
10
-126.72786829411601
20
69.517292184339396
10
-126.748268294116
20
69.672292184339398
10
-126.72786829411601
20
69.827292184339299
10
-126.667868294116
20
69.972292184339409
10
-126.57256829411601
20
70.096292184339404
10
-126.448268294116
20
70.192292184339394
10
-126.30356829411602
20
70.252292184339396
10
-126.14826829411599
20
70.272292184339307
10
-125.992968294116
20
70.252292184339396
10
-125.848268294116
20
70.192292184339394
10
-125.72396829411602
20
70.096292184339404
0
LWPOLYLINE
5
124
100
AcDbEntity
8
0
100
AcDbPolyline
90
24
70
1
43
0.0
10
-137.14826829411601
20
72.862292184339296
10
-137.00356829411601
20
72.922292184339298
10
-136.848268294116
20
72.942292184339294
10
-136.69296829411601
20
72.922292184339298
10
-136.54826829411601
20
72.862292184339296
10
-136.42396829411604
20
72.766292184339406
10
-136.328668294116
20
72.642292184339396
10
-136.268768294116
20
72.497292184339301
10
-136.248268294116
20
72.342292184339399
10
-136.268768294116
20
72.187292184339299
10
-136.328668294116
20
72.042292184339303
10
-136.42396829411604
20
71.918292184339407
10
-136.54826829411601
20
71.822292184339304
10
-136.69296829411601
20
71.762292184339302
10
-136.848268294116
20
71.742292184339405
10
-137.00356829411601
20
71.762292184339302
10
-137.14826829411601
20
71.822292184339304
10
-137.27256829411601
20
71.918292184339407
10
-137.36786829411599
20
72.042292184339303
10
-137.427868294116
20
72.187292184339299
10
-137.44826829411602
20
72.342292184339399
10
-137.427868294116
20
72.497292184339301
10
-137.36786829411599
20
72.642292184339396
10
-137.27256829411601
20
72.766292184339406
0
CIRCLE
5
125
100
AcDbEntity
8
0
100
AcDbCircle
10
-181.305206
20
44.561999999999998
30
0
40
1.0999999999999901
210
0
220
-0
230
1
0
CIRCLE
5
126
100
AcDbEntity
8
0
100
AcDbCircle
10
-222.57315000000003
20
59.192993999999999
30
0
40
1.0999999999999901
210
0
220
-0
230
1
0
LWPOLYLINE
5
127
100
AcDbEntity
8
0
100
AcDbPolyline
90
4
70
1
43
0.0
10
-164.517291
20
44.965417000000009
10
-162.06885199999999
20
31.079628
10
-175.95464100000001
20
28.631188999999999
10
-178.40307999999999
20
42.516978000000009
0
LWPOLYLINE
5
128
100
AcDbEntity
8
0
100
AcDbPolyline
90
4
70
1
43
0.0
10
-202.03518900000003
20
38.347304000000001
10
-199.58674999999999
20
24.461514999999999
10
-213.47253900000001
20
22.013076000000002
10
-215.92097800000002
20
35.898865000000001
0
LWPOLYLINE
5
129
100
AcDbEntity
8
0
100
AcDbPolyline
90
4
70
1
43
0.0
10
-183.27698000000001
20
41.656367000000003
10
-180.82854100000003
20
27.770578
10
-194.71433000000002
20
25.322139000000004
10
-197.162769
20
39.207928000000003
0
LWPOLYLINE
5
130
100
AcDbEntity
8
0
100
AcDbPolyline
90
4
70
1
43
0.0
10
-222.45153999999999
20
44.421790000000001
10
-220.00310100000002
20
30.536001000000002
10
-233.88889000000003
20
28.087561999999998
10
-236.33732900000001
20
41.973351000000001
0
LWPOLYLINE
5
131
100
AcDbEntity
8
0
100
AcDbPolyline
90
4
70
1
43
0.0
10
-167.82355100000001
20
63.726491000000003
10
-165.375112
20
49.840702000000007
10
-179.26090099999999
20
47.392263
10
-181.70934
20
61.27805200000001
0
LWPOLYLINE
5
132
100
AcDbEntity
8
0
100
AcDbPolyline
90
4
70
1
43
0.0
10
-186.58316400000001
20
60.417787000000004
10
-184.134725
20
46.531998000000002
10
-198.02051399999999
20
44.083559000000001
10
-200.46895300000003
20
57.969347999999997
0
LWPOLYLINE
5
133
100
AcDbEntity
8
0
100
AcDbPolyline
90
4
70
1
43
0.0
10
-205.34144900000001
20
57.108385000000006
10
-202.89301
20
43.22259600000001
10
-216.77879899999999
20
40.774157000000002
10
-219.227238
20
54.659946000000005
0
LWPOLYLINE
5
134
100
AcDbEntity
8
0
100
AcDbPolyline
90
4
70
1
43
0.0
10
-225.75770900000003
20
63.183208000000008
10
-223.30927000000003
20
49.297418999999998
10
-237.19505900000001
20
46.848979999999997
10
-239.64349800000002
20
60.734769
0
LWPOLYLINE
5
135
100
AcDbEntity
8
0
100
AcDbPolyline
90
4
70
1
43
0.0
10
-171.13538800000001
20
82.486857000000015
10
-168.68694900000003
20
68.601067999999998
10
-182.57273800000002
20
66.152629000000019
10
-185.02117699999999
20
80.038418000000007
0
LWPOLYLINE
5
136
100
AcDbEntity
8
0
100
AcDbPolyline
90
4
70
1
43
0.0
10
-208.65330200000002
20
75.868740000000003
10
-206.20486299999999
20
61.982951
10
-220.09065200000003
20
59.534511999999999
10
-222.53909100000001
20
73.420300999999995
0
LWPOLYLINE
5
137
100
AcDbEntity
8
0
100
AcDbPolyline
90
4
70
1
43
0.0
10
-189.89511100000001
20
79.177811000000005
10
-187.44667200000004
20
65.292022000000003
10
-201.33246100000002
20
62.84358300000001
10
-203.7809
20
76.729371999999998
0
LWPOLYLINE
5
138
100
AcDbEntity
8
0
100
AcDbPolyline
90
4
70
1
43
0.0
10
-226.62119899999999
20
68.057445000000001
10
-240.50698800000004
20
65.609005999999994
10
-242.95542699999999
20
79.494794999999996
10
-229.069638
20
81.943234000000004
0
LWPOLYLINE
5
139
100
AcDbEntity
8
0
100
AcDbPolyline
90
4
70
1
43
0.0
10
-169.56387599999999
20
102.10617300000001
10
-155.678087
20
104.55461200000002
10
-153.229648
20
90.668823000000017
10
-167.11543699999999
20
88.220383999999996
0
LWPOLYLINE
5
140
100
AcDbEntity
8
0
100
AcDbPolyline
90
4
70
1
43
0.0
10
-145.75655699999999
20
48.27094000000001
10
-143.30811800000001
20
34.385151
10
-157.193907
20
31.936712000000004
10
-159.642346
20
45.822501000000003
0
LWPOLYLINE
5
141
100
AcDbEntity
8
0
100
AcDbPolyline
90
4
70
1
43
0.0
10
-135.29839899999999
20
106.61213400000001
10
-134.069503
20
92.565787999999998
10
-148.115849
20
91.336892000000006
10
-149.34474499999999
20
105.38323800000001
0
LWPOLYLINE
5
142
100
AcDbEntity
8
0
100
AcDbPolyline
90
4
70
1
43
0.0
10
-152.374661
20
85.792383000000001
10
-149.926222
20
71.906593999999998
10
-163.81201100000001
20
69.458155000000005
10
-166.26045000000002
20
83.343943999999993
0
LWPOLYLINE
5
143
100
AcDbEntity
8
0
100
AcDbPolyline
90
4
70
1
43
0.0
10
-113.95381900000001
20
67.032165000000006
10
-100.06802999999999
20
64.583726000000013
10
-102.516469
20
50.69793700000001
10
-116.40225800000002
20
53.146376000000004
0
CIRCLE
5
144
100
AcDbEntity
8
0
100
AcDbCircle
10
-40.532779000000005
20
59.191694000000005
30
0
40
1.1000000000000001
210
0
220
-0
230
1
0
CIRCLE
5
145
100
AcDbEntity
8
0
100
AcDbCircle
10
-81.800720000000013
20
44.561999999999998
30
0
40
1.0999999999999901
210
0
220
-0
230
1
0
LWPOLYLINE
5
146
100
AcDbEntity
8
0
100
AcDbPolyline
90
4
70
1
43
0.0
10
-60.981181000000007
20
38.347135000000002
10
-47.095392000000004
20
35.898696000000001
10
-49.543831000000004
20
22.012906999999998
10
-63.42962
20
24.461346000000002
0
LWPOLYLINE
5
147
100
AcDbEntity
8
0
100
AcDbPolyline
90
4
70
1
43
0.0
10
-40.564977000000006
20
44.421953999999999
10
-26.679188000000003
20
41.973514999999999
10
-29.127627
20
28.087726000000004
10
-43.013415999999999
20
30.536165000000004
0
LWPOLYLINE
5
148
100
AcDbEntity
8
0
100
AcDbPolyline
90
4
70
1
43
0.0
10
-79.739673999999994
20
41.656511000000009
10
-65.853885000000005
20
39.208072000000001
10
-68.302323999999999
20
25.322282999999999
10
-82.188113000000001
20
27.770721999999999
0
LWPOLYLINE
5
149
100
AcDbEntity
8
0
100
AcDbPolyline
90
4
70
1
43
0.0
10
-98.498958999999999
20
44.965271000000008
10
-84.613169999999997
20
42.516832000000008
10
-87.061609000000004
20
28.631042999999998
10
-100.94739800000001
20
31.079481999999999
0
LWPOLYLINE
5
150
100
AcDbEntity
8
0
100
AcDbPolyline
90
4
70
1
43
0.0
10
-57.675083000000001
20
57.108549000000004
10
-43.789293999999998
20
54.66011000000001
10
-46.237732999999999
20
40.774321
10
-60.123522000000008
20
43.222760000000008
0
LWPOLYLINE
5
151
100
AcDbEntity
8
0
100
AcDbPolyline
90
4
70
1
43
0.0
10
-76.433409999999995
20
60.417583999999998
10
-62.547621000000007
20
57.969144999999997
10
-64.99606
20
44.083356000000002
10
-78.881849000000003
20
46.531795000000002
0
LWPOLYLINE
5
152
100
AcDbEntity
8
0
100
AcDbPolyline
90
4
70
1
43
0.0
10
-37.258819000000003
20
63.183028000000007
10
-23.37303
20
60.734589
10
-25.821468999999905
20
46.848799999999997
10
-39.707258000000003
20
49.297238999999998
0
LWPOLYLINE
5
153
100
AcDbEntity
8
0
100
AcDbPolyline
90
4
70
1
43
0.0
10
-95.193100000000015
20
63.726634000000004
10
-81.307310999999999
20
61.278195000000004
10
-83.755749999999907
20
47.392406000000008
10
-97.641538999999995
20
49.840845000000009
0
LWPOLYLINE
5
154
100
AcDbEntity
8
0
100
AcDbPolyline
90
4
70
1
43
0.0
10
-33.946857999999999
20
81.943398000000002
10
-20.061069000000003
20
79.494958999999994
10
-22.509508
20
65.609170000000006
10
-36.395296999999999
20
68.057608999999999
0
LWPOLYLINE
5
155
100
AcDbEntity
8
0
100
AcDbPolyline
90
4
70
1
43
0.0
10
-56.811515
20
61.982788000000006
10
-54.363076
20
75.868577000000002
10
-40.477286999999997
20
73.420138000000009
10
-42.925725999999997
20
59.534349000000006
0
LWPOLYLINE
5
156
100
AcDbEntity
8
0
100
AcDbPolyline
90
4
70
1
43
0.0
10
-61.684200000000004
20
62.843720000000005
10
-75.569989000000007
20
65.292158999999998
10
-73.121550000000013
20
79.177948000000001
10
-59.235760999999997
20
76.729509000000007
0
LWPOLYLINE
5
157
100
AcDbEntity
8
0
100
AcDbPolyline
90
4
70
1
43
0.0
10
-91.880851000000007
20
82.486711000000014
10
-77.995062000000004
20
80.038272000000021
10
-80.443501000000012
20
66.152483000000018
10
-94.32929
20
68.600921999999997
0
LWPOLYLINE
5
158
100
AcDbEntity
8
0
100
AcDbPolyline
90
4
70
1
43
0.0
10
-117.25968700000001
20
48.270800999999999
10
-103.373898
20
45.822361999999998
10
-105.82233700000002
20
31.936572999999999
10
-119.70812600000001
20
34.385012000000003
0
LWPOLYLINE
5
159
100
AcDbEntity
8
0
100
AcDbPolyline
90
4
70
1
43
0.0
10
-93.452737999999997
20
102.10615300000001
10
-95.901177000000004
20
88.220364000000004
10
-109.78696600000001
20
90.668802999999997
10
-107.338527
20
104.554592
0
CIRCLE
5
160
100
AcDbEntity
8
0
100
AcDbCircle
10
-119.329216
20
67.573690999999997
30
0
40
1.0999999999999901
210
0
220
-0
230
1
0
CIRCLE
5
161
100
AcDbEntity
8
0
100
AcDbCircle
10
-117.67821499999999
20
84.228938999999997
30
0
40
1.0999999999999901
210
0
220
-0
230
1
0
CIRCLE
5
162
100
AcDbEntity
8
0
100
AcDbCircle
10
-143.76965300000001
20
67.574341000000004
30
0
40
1.0999999999999901
210
0
220
-0
230
1
0
CIRCLE
5
163
100
AcDbEntity
8
0
100
AcDbCircle
10
-145.42066199999999
20
84.228289000000004
30
0
40
1.0999999999999901
210
0
220
-0
230
1
0
LWPOLYLINE
5
164
100
AcDbEntity
8
0
100
AcDbPolyline
90
4
70
1
43
0.0
10
-127.717907
20
106.60862600000002
10
-113.67156100000001
20
105.37973000000001
10
-114.90045700000002
20
91.333383999999995
10
-128.94680299999999
20
92.562280000000001
0
LWPOLYLINE
5
165
100
AcDbEntity
8
0
100
AcDbPolyline
90
4
70
1
43
0.0
10
-99.204217
20
69.458010999999999
10
-113.09000600000002
20
71.906450000000007
10
-110.64156699999999
20
85.792239000000009
10
-96.755778000000007
20
83.343800000000016
0
LWPOLYLINE
5
166
100
AcDbEntity
8
0
100
AcDbPolyline
90
4
70
1
43
0.0
10
-149.06282300000001
20
67.032021999999998
10
-146.61438400000003
20
53.146233000000009
10
-160.50017300000002
20
50.697794000000009
10
-162.948612
20
64.583583000000004
0
ENDSEC
0
SECTION
2
OBJECTS
0
DICTIONARY
5
C
100
AcDbDictionary
3
ACAD_GROUP
350
D
3
ACAD_MLINESTYLE
350
17
0
DICTIONARY
5
D
100
AcDbDictionary
0
DICTIONARY
5
1A
330
C
100
AcDbDictionary
0
DICTIONARY
5
17
100
AcDbDictionary
0
ENDSEC
0
EOF
